<svg width="16" height="16" viewBox="0 0 16 16" fill="none" xmlns="http://www.w3.org/2000/svg">
<rect width="16" height="16" fill="#E5E5E5"/>
<g id="Main Page" clip-path="url(#clip0_297016_823)">
<rect width="1440" height="3468" transform="translate(-824 -1736)" fill="white"/>
<g id="Section 2">
<rect id="Light-bg" x="-824" y="-600" width="1440" height="780" fill="#F4F4FD"/>
<g id="Team Card 3" filter="url(#filter0_ddd_297016_823)">
<path d="M-92 -368H172V56C172 58.2091 170.209 60 168 60H-88C-90.2091 60 -92 58.2091 -92 56V-368Z" fill="white"/>
<g id="Card Content">
<g id="Traling Icons">
<g id="Ellipse">
<path id="Ellipse_2" d="M28 7.99994C28 13.5228 25.7614 18.5228 22.1421 22.1421C18.5228 25.7614 13.5228 27.9999 8 27.9999C2.47715 27.9999 -2.52285 25.7614 -6.14214 22.1421C-9.76142 18.5228 -12 13.5228 -12 7.99994C-12 2.47709 -9.76142 -2.52291 -6.14214 -6.1422C-2.52285 -9.76148 2.47715 -12.0001 8 -12.0001C13.5228 -12.0001 18.5228 -9.76148 22.1421 -6.1422C25.7614 -2.52291 28 2.47709 28 7.99994Z" fill="#4D5AE5"/>
<g id="twitter 1" clip-path="url(#clip1_297016_823)">
<g id="Group">
<g id="Group_2">
<path id="Vector" d="M16 3.03894C15.405 3.29994 14.771 3.47294 14.11 3.55694C14.79 3.15094 15.309 2.51294 15.553 1.74394C14.919 2.12194 14.219 2.38894 13.473 2.53794C12.871 1.89694 12.013 1.49994 11.077 1.49994C9.26097 1.49994 7.79897 2.97394 7.79897 4.78094C7.79897 5.04094 7.82097 5.29094 7.87497 5.52894C5.14797 5.39594 2.73497 4.08894 1.11397 2.09794C0.830969 2.58894 0.66497 3.15094 0.66497 3.75594C0.66497 4.89194 1.24997 5.89894 2.12197 6.48194C1.59497 6.47194 1.07797 6.31894 0.639969 6.07794C0.639969 6.08794 0.639969 6.10094 0.639969 6.11394C0.639969 7.70794 1.77697 9.03194 3.26797 9.33694C3.00097 9.40994 2.70997 9.44494 2.40797 9.44494C2.19797 9.44494 1.98597 9.43294 1.78697 9.38894C2.21197 10.6879 3.41797 11.6429 4.85197 11.6739C3.73597 12.5469 2.31897 13.0729 0.78497 13.0729C0.51597 13.0729 0.257969 13.0609 -3.05176e-05 13.0279C1.45297 13.9649 3.17497 14.4999 5.03197 14.4999C11.068 14.4999 14.368 9.49994 14.368 5.16594C14.368 5.02094 14.363 4.88094 14.356 4.74194C15.007 4.27994 15.554 3.70294 16 3.03894Z" fill="#F4F4FD"/>
</g>
</g>
</g>
</g>
</g>
</g>
</g>
</g>
</g>
<defs>
<filter id="filter0_ddd_297016_823" x="-98" y="-373" width="276" height="440" filterUnits="userSpaceOnUse" color-interpolation-filters="sRGB">
<feFlood flood-opacity="0" result="BackgroundImageFix"/>
<feColorMatrix in="SourceAlpha" type="matrix" values="0 0 0 0 0 0 0 0 0 0 0 0 0 0 0 0 0 0 127 0" result="hardAlpha"/>
<feOffset dy="2"/>
<feGaussianBlur stdDeviation="0.5"/>
<feColorMatrix type="matrix" values="0 0 0 0 0.180392 0 0 0 0 0.184314 0 0 0 0 0.258824 0 0 0 0.08 0"/>
<feBlend mode="normal" in2="BackgroundImageFix" result="effect1_dropShadow_297016_823"/>
<feColorMatrix in="SourceAlpha" type="matrix" values="0 0 0 0 0 0 0 0 0 0 0 0 0 0 0 0 0 0 127 0" result="hardAlpha"/>
<feOffset dy="1"/>
<feGaussianBlur stdDeviation="0.5"/>
<feColorMatrix type="matrix" values="0 0 0 0 0.180392 0 0 0 0 0.184314 0 0 0 0 0.258824 0 0 0 0.16 0"/>
<feBlend mode="normal" in2="effect1_dropShadow_297016_823" result="effect2_dropShadow_297016_823"/>
<feColorMatrix in="SourceAlpha" type="matrix" values="0 0 0 0 0 0 0 0 0 0 0 0 0 0 0 0 0 0 127 0" result="hardAlpha"/>
<feOffset dy="1"/>
<feGaussianBlur stdDeviation="3"/>
<feColorMatrix type="matrix" values="0 0 0 0 0.180392 0 0 0 0 0.184314 0 0 0 0 0.258824 0 0 0 0.08 0"/>
<feBlend mode="normal" in2="effect2_dropShadow_297016_823" result="effect3_dropShadow_297016_823"/>
<feBlend mode="normal" in="SourceGraphic" in2="effect3_dropShadow_297016_823" result="shape"/>
</filter>
<clipPath id="clip0_297016_823">
<rect width="1440" height="3468" fill="white" transform="translate(-824 -1736)"/>
</clipPath>
<clipPath id="clip1_297016_823">
<rect width="16" height="16" fill="white"/>
</clipPath>
</defs>
</svg>
